PathFileType	4	(X/Y/Z)	output.trc
DataRate	CameraRate	NumFrames	NumMarkers	Units	OrigDataRate	OrigDataStartFrame	OrigNumFrames
100	100	16	23	m	100	2346	3753
Frame#	Time	C7			T8			EL			EM			US			RS			AA			Fore_Clus_1			Fore_Clus_2			Fore_Clus_3			Fore_Clus_4			Hum_Clus_1			Hum_Clus_2			Hum_Clus_3			Hum_Clus_4			Thor_Clus_1			Thor_Clus_2			Thor_Clus_3			Thor_Clus_4			IJ			PX			GH			Thor_Clus_5		
		X1	Y1	Z1	X2	Y2	Z2	X3	Y3	Z3	X4	Y4	Z4	X5	Y5	Z5	X6	Y6	Z6	X7	Y7	Z7	X8	Y8	Z8	X9	Y9	Z9	X10	Y10	Z10	X11	Y11	Z11	X12	Y12	Z12	X13	Y13	Z13	X14	Y14	Z14	X15	Y15	Z15	X16	Y16	Z16	X17	Y17	Z17	X18	Y18	Z18	X19	Y19	Z19	X20	Y20	Z20	X21	Y21	Z21	X22	Y22	Z22	X23	Y23	Z23
2345	23.450000	-0.035677	1.570957	-0.069475	-0.040688	1.326972	-0.109843	-0.264592	1.178615	0.065861	-0.199040	1.164347	0.027971	-0.096513	1.175403	0.297471	-0.075282	1.233103	0.274850	-0.205002	1.496241	0.032570	-0.151470	1.190385	0.273190	-0.119961	1.198947	0.317179	-0.115689	1.225272	0.308748	-0.143481	1.232209	0.258789	-0.257024	1.290512	0.119498	-0.278008	1.297636	0.063463	-0.282693	1.360983	0.061882	-0.255031	1.364477	0.113578	0.095534	1.472792	0.091422	0.050772	1.424637	0.144280	0.056302	1.472460	0.112177	0.107716	1.425181	0.114054	0.033399	1.500450	0.051204	0.064205	1.320371	0.106820	-0.169118	1.477664	0.054055	0.045414	1.445947	0.133904
2346	23.460000	-0.035698	1.570959	-0.069468	-0.040705	1.326971	-0.109816	-0.264573	1.178605	0.065902	-0.199021	1.164341	0.028010	-0.096507	1.175365	0.297515	-0.075275	1.233067	0.274900	-0.205016	1.496247	0.032592	-0.151460	1.190351	0.273226	-0.119970	1.198900	0.317221	-0.115692	1.225225	0.308813	-0.143488	1.232166	0.258837	-0.257016	1.290491	0.119524	-0.278009	1.297613	0.063493	-0.282701	1.360962	0.061909	-0.255094	1.364460	0.113617	0.095527	1.472823	0.091441	0.050735	1.424638	0.144310	0.056303	1.472482	0.112181	0.107707	1.425210	0.114067	0.033385	1.500464	0.051214	0.064199	1.320390	0.106843	-0.169134	1.477664	0.054072	0.045393	1.445951	0.133926
2347	23.470000	-0.035726	1.570948	-0.069467	-0.040730	1.326953	-0.109778	-0.264551	1.178593	0.065943	-0.198999	1.164336	0.028048	-0.096499	1.175329	0.297557	-0.075262	1.233030	0.274943	-0.205034	1.496247	0.032617	-0.151452	1.190342	0.273268	-0.119952	1.198887	0.317262	-0.115678	1.225220	0.308847	-0.143478	1.232162	0.258871	-0.256999	1.290491	0.119556	-0.278000	1.297603	0.063529	-0.282694	1.360958	0.061935	-0.255043	1.364472	0.113637	0.095517	1.472838	0.091444	0.050754	1.424677	0.144326	0.056341	1.472546	0.112200	0.107700	1.425237	0.114080	0.033369	1.500472	0.051220	0.064192	1.320407	0.106873	-0.169150	1.477663	0.054087	0.045372	1.445987	0.133940
2348	23.480000	-0.035757	1.570926	-0.069472	-0.040761	1.326923	-0.109731	-0.264528	1.178582	0.065983	-0.198976	1.164329	0.028087	-0.096488	1.175298	0.297595	-0.075245	1.232994	0.274976	-0.205053	1.496244	0.032646	-0.151440	1.190315	0.273312	-0.119949	1.198854	0.317314	-0.115666	1.225184	0.308900	-0.143443	1.232092	0.259034	-0.256996	1.290480	0.119587	-0.277999	1.297582	0.063580	-0.282702	1.360930	0.061976	-0.255065	1.364444	0.113671	0.095505	1.472873	0.091459	0.050730	1.424678	0.144343	0.056335	1.472569	0.112209	0.107699	1.425267	0.114086	0.033352	1.500477	0.051222	0.064184	1.320425	0.106910	-0.169163	1.477662	0.054102	0.045357	1.445989	0.133953
2349	23.490000	-0.035791	1.570895	-0.069483	-0.040795	1.326881	-0.109677	-0.264504	1.178570	0.066024	-0.198952	1.164322	0.028126	-0.096475	1.175270	0.297630	-0.075224	1.232960	0.275001	-0.205073	1.496236	0.032675	-0.151410	1.190303	0.273353	-0.119937	1.198851	0.317367	-0.115656	1.225173	0.308953	-0.143397	1.232049	0.259188	-0.256988	1.290477	0.119629	-0.277997	1.297565	0.063624	-0.282705	1.360924	0.061999	-0.255045	1.364457	0.113695	0.095485	1.472894	0.091465	0.050744	1.424727	0.144356	0.056330	1.472617	0.112229	0.107683	1.425297	0.114118	0.033333	1.500479	0.051221	0.064176	1.320442	0.106953	-0.169175	1.477661	0.054114	0.045353	1.446026	0.133963
2350	23.500000	-0.035828	1.570854	-0.069500	-0.040830	1.326828	-0.109619	-0.264480	1.178559	0.066066	-0.198928	1.164315	0.028166	-0.096459	1.175246	0.297664	-0.075198	1.232926	0.275019	-0.205095	1.496221	0.032702	-0.151398	1.190288	0.273405	-0.119923	1.198837	0.317415	-0.115636	1.225151	0.309005	-0.143391	1.232040	0.259214	-0.256973	1.290461	0.119668	-0.277995	1.297536	0.063667	-0.282707	1.360905	0.062039	-0.255060	1.364417	0.113720	0.095471	1.472918	0.091476	0.050672	1.424736	0.144326	0.056311	1.472610	0.112230	0.107685	1.425297	0.114096	0.033314	1.500478	0.051217	0.064169	1.320459	0.107001	-0.169185	1.477660	0.054125	0.045323	1.446046	0.133976
2351	23.510000	-0.035863	1.570811	-0.069521	-0.040861	1.326771	-0.109560	-0.264458	1.178549	0.066112	-0.198907	1.164308	0.028209	-0.096439	1.175228	0.297696	-0.075169	1.232897	0.275032	-0.205116	1.496205	0.032725	-0.151362	1.190298	0.273454	-0.119888	1.198836	0.317467	-0.115604	1.225168	0.309050	-0.143357	1.232050	0.259271	-0.256964	1.290469	0.119698	-0.277988	1.297532	0.063718	-0.282701	1.360915	0.062076	-0.255046	1.364449	0.113760	0.095457	1.472934	0.091484	0.050731	1.424793	0.144376	0.056294	1.472614	0.112239	0.107673	1.425354	0.114149	0.033295	1.500476	0.051211	0.064163	1.320476	0.107049	-0.169193	1.477658	0.054133	0.045333	1.446076	0.133980
2352	23.520000	-0.035898	1.570764	-0.069545	-0.040883	1.326711	-0.109504	-0.264437	1.178541	0.066162	-0.198889	1.164300	0.028254	-0.096416	1.175214	0.297729	-0.075134	1.232869	0.275043	-0.205137	1.496181	0.032741	-0.151351	1.190283	0.273521	-0.119870	1.198824	0.317520	-0.115602	1.225150	0.309156	-0.143346	1.232031	0.259330	-0.256956	1.290464	0.119752	-0.277985	1.297507	0.063772	-0.282707	1.360893	0.062118	-0.255043	1.364443	0.113788	0.095440	1.472952	0.091492	0.050668	1.424785	0.144341	0.056283	1.472635	0.112246	0.107665	1.425346	0.114123	0.033276	1.500473	0.051204	0.064161	1.320493	0.107098	-0.169199	1.477656	0.054139	0.045307	1.446083	0.133997
2353	23.530000	-0.035927	1.570721	-0.069570	-0.040894	1.326656	-0.109455	-0.264421	1.178534	0.066220	-0.198877	1.164293	0.028305	-0.096390	1.175204	0.297765	-0.075095	1.232845	0.275054	-0.205154	1.496155	0.032747	-0.151303	1.190288	0.273588	-0.119832	1.198827	0.317584	-0.115391	1.225149	0.308991	-0.143305	1.232038	0.259390	-0.256939	1.290481	0.119798	-0.277971	1.297508	0.063824	-0.282703	1.360888	0.062168	-0.255030	1.364457	0.113843	0.095427	1.472972	0.091501	0.050692	1.424814	0.144349	0.056307	1.472698	0.112269	0.107664	1.425377	0.114138	0.033259	1.500472	0.051196	0.064161	1.320512	0.107143	-0.169204	1.477653	0.054143	0.045306	1.446104	0.134007
2354	23.540000	-0.035950	1.570683	-0.069597	-0.040889	1.326607	-0.109418	-0.264409	1.178529	0.066289	-0.198872	1.164284	0.028363	-0.096359	1.175197	0.297807	-0.075052	1.232824	0.275070	-0.205169	1.496124	0.032739	-0.151278	1.190269	0.273661	-0.119794	1.198814	0.317652	-0.115212	1.225142	0.308865	-0.143288	1.232029	0.259461	-0.256931	1.290475	0.119857	-0.277966	1.297489	0.063900	-0.282702	1.360876	0.062216	-0.255014	1.364451	0.113885	0.095419	1.472990	0.091505	0.050686	1.424844	0.144352	0.056287	1.472695	0.112270	0.107663	1.425406	0.114151	0.033243	1.500474	0.051188	0.064166	1.320532	0.107182	-0.169207	1.477651	0.054145	0.045306	1.446125	0.134014
2355	23.550000	-0.035967	1.570652	-0.069624	-0.040864	1.326567	-0.109395	-0.264403	1.178526	0.066372	-0.198875	1.164276	0.028432	-0.096323	1.175192	0.297858	-0.075003	1.232803	0.275094	-0.205181	1.496087	0.032717	-0.151226	1.190284	0.273746	-0.119747	1.198828	0.317721	-0.115184	1.225146	0.308959	-0.143231	1.232039	0.259535	-0.256902	1.290498	0.119906	-0.277952	1.297510	0.063973	-0.282688	1.360897	0.062270	-0.254987	1.364481	0.113935	0.095423	1.473022	0.091505	0.050705	1.424883	0.144371	0.056296	1.472732	0.112287	0.107669	1.425430	0.114161	0.033230	1.500479	0.051180	0.064178	1.320553	0.107213	-0.169209	1.477648	0.054145	0.045305	1.446164	0.134028
2356	23.560000	-0.035974	1.570633	-0.069650	-0.040819	1.326541	-0.109389	-0.264403	1.178526	0.066474	-0.198889	1.164266	0.028514	-0.096282	1.175189	0.297920	-0.074949	1.232786	0.275131	-0.205187	1.496049	0.032678	-0.151194	1.190264	0.273845	-0.119705	1.198813	0.317799	-0.115142	1.225124	0.309030	-0.143199	1.232024	0.259625	-0.256889	1.290491	0.119988	-0.277952	1.297496	0.064077	-0.282686	1.360881	0.062347	-0.254979	1.364476	0.113995	0.095418	1.473044	0.091501	0.050695	1.424890	0.144372	0.056292	1.472763	0.112300	0.107659	1.425457	0.114165	0.033220	1.500489	0.051173	0.064195	1.320576	0.107234	-0.169209	1.477643	0.054144	0.045293	1.446174	0.134037
2357	23.570000	-0.035974	1.570621	-0.069675	-0.040751	1.326526	-0.109400	-0.264409	1.178528	0.066597	-0.198912	1.164255	0.028613	-0.096235	1.175185	0.297997	-0.074889	1.232767	0.275186	-0.205190	1.496003	0.032622	-0.151132	1.190280	0.273943	-0.119653	1.198821	0.317877	-0.115073	1.225146	0.309125	-0.143117	1.232017	0.259738	-0.256868	1.290514	0.120064	-0.277937	1.297513	0.064171	-0.282674	1.360903	0.062415	-0.254940	1.364508	0.114067	0.095416	1.473068	0.091503	0.050702	1.424937	0.144382	0.056285	1.472775	0.112295	0.107658	1.425482	0.114173	0.033213	1.500502	0.051166	0.064220	1.320601	0.107245	-0.169208	1.477638	0.054143	0.045297	1.446214	0.134043
2358	23.580000	-0.035965	1.570621	-0.069700	-0.040661	1.326524	-0.109428	-0.264423	1.178533	0.066746	-0.198948	1.164241	0.028731	-0.096181	1.175180	0.298093	-0.074823	1.232750	0.275260	-0.205188	1.495952	0.032550	-0.151094	1.190285	0.274070	-0.119601	1.198827	0.317963	-0.115022	1.225144	0.309225	-0.143049	1.232027	0.259879	-0.256845	1.290525	0.120161	-0.277939	1.297503	0.064282	-0.282674	1.360899	0.062512	-0.254913	1.364521	0.114146	0.095430	1.473101	0.091506	0.050701	1.424951	0.144395	0.056361	1.472863	0.112346	0.107663	1.425515	0.114184	0.033208	1.500521	0.051159	0.064253	1.320628	0.107246	-0.169205	1.477631	0.054141	0.045286	1.446236	0.134043
2359	23.590000	-0.035950	1.570628	-0.069726	-0.040550	1.326533	-0.109472	-0.264443	1.178539	0.066925	-0.198995	1.164225	0.028872	-0.096119	1.175173	0.298209	-0.074751	1.232731	0.275358	-0.205182	1.495895	0.032463	-0.151035	1.190295	0.274187	-0.119538	1.198848	0.318069	-0.114949	1.225172	0.309338	-0.142971	1.232062	0.260040	-0.256804	1.290557	0.120271	-0.277927	1.297514	0.064418	-0.282665	1.360914	0.062621	-0.254873	1.364557	0.114242	0.095414	1.473123	0.091525	0.050723	1.424995	0.144400	0.055972	1.472654	0.112084	0.107672	1.425550	0.114184	0.033206	1.500543	0.051152	0.064293	1.320657	0.107236	-0.169201	1.477621	0.054139	0.045310	1.446249	0.134083
2360	23.600000	-0.035933	1.570639	-0.069752	-0.040421	1.326547	-0.109529	-0.264469	1.178547	0.067135	-0.199052	1.164207	0.029039	-0.096050	1.175162	0.298350	-0.074670	1.232710	0.275483	-0.205173	1.495828	0.032363	-0.150990	1.190292	0.274339	-0.119468	1.198847	0.318186	-0.114876	1.225171	0.309480	-0.142913	1.232063	0.260160	-0.256782	1.290570	0.120398	-0.277930	1.297502	0.064567	-0.282668	1.360909	0.062740	-0.254835	1.364568	0.114344	0.095413	1.473150	0.091504	0.050725	1.425007	0.144401	0.056310	1.472880	0.112317	0.107669	1.425574	0.114202	0.033206	1.500567	0.051144	0.064342	1.320687	0.107219	-0.169194	1.477610	0.054138	0.045139	1.446492	0.133798
